<svg width="158" height="158" viewBox="0 0 158 158" fill="none" xmlns="http://www.w3.org/2000/svg">
<path d="M132.32 74.5885V152.029C132.32 153.949 130.8 155.469 128.88 155.469H5.44016C3.52016 155.469 2 153.949 2 152.029V28.5882C2 26.6682 3.52016 25.1482 5.44016 25.1482H82.5597" fill="#F9D581"/>
<path d="M132.32 74.5885V152.029C132.32 153.949 130.8 155.469 128.88 155.469H5.44016C3.52016 155.469 2 153.949 2 152.029V28.5882C2 26.6682 3.52016 25.1482 5.44016 25.1482H82.5597" stroke="#FDBB21" stroke-width="4" stroke-miterlimit="10" stroke-linecap="round" stroke-linejoin="round"/>
<path d="M131.76 51.0683L89.7595 92.6686C89.1195 93.3086 88.1603 93.7086 87.2003 93.7086H63.5195V69.2286C63.5195 68.2686 63.9195 67.3886 64.5595 66.7486L106.16 25.4683" fill="#B69C5F"/>
<path d="M131.76 51.0683L89.7595 92.6686C89.1195 93.3086 88.1603 93.7086 87.2003 93.7086H63.5195V69.2286C63.5195 68.2686 63.9195 67.3886 64.5595 66.7486L106.16 25.4683" stroke="#74591B" stroke-width="4" stroke-miterlimit="10" stroke-linecap="round" stroke-linejoin="round"/>
<path d="M129.75 2L117.532 14.2187L143.101 39.7874L155.319 27.5687L129.75 2Z" fill="#F31E1E" stroke="#F31E1E" stroke-width="4" stroke-miterlimit="10" stroke-linecap="round" stroke-linejoin="round"/>
</svg>
